<?xml version="1.0" encoding="utf-8"?>
<!-- Generator: Adobe Illustrator 25.2.2, SVG Export Plug-In . SVG Version: 6.00 Build 0)  -->
<svg version="1.1" id="Layer_1" xmlns="http://www.w3.org/2000/svg" xmlns:xlink="http://www.w3.org/1999/xlink" x="0px" y="0px"
	 viewBox="0 0 512 512" style="enable-background:new 0 0 512 512;" xml:space="preserve">
<style type="text/css">
	.st0{fill:#EF7A13;}
</style>
<g>
	<path class="st0" d="M511.5,248.5c0-43-31-78.8-71.9-86.4c1.3-63.2-60.1-112-123.1-93.3C297.4,28.5,256.6,0,208.1,0
		C143.5,0,90.7,51.3,88.4,115.3C37.5,126.4,0.5,171.7,0.5,224.6c0,61.6,50.1,111.8,111.8,111.8h311.4
		C472.1,336.3,511.5,296.9,511.5,248.5z"/>
	<path class="st0" d="M351,362c-7.9-3.9-17.5-0.7-21.4,7.1L297.6,433c-5.3,10.7,2.5,23.1,14.3,23.1c5.9,0,11.5-3.2,14.3-8.8
		l31.9-63.9C362.1,375.5,358.9,365.9,351,362z"/>
	<path class="st0" d="M494.7,362c-7.9-3.9-17.5-0.7-21.4,7.1L441.3,433c-5.3,10.7,2.5,23.1,14.3,23.1c5.9,0,11.5-3.2,14.3-8.8
		l31.9-63.9C505.8,375.5,502.6,365.9,494.7,362z"/>
	<path class="st0" d="M207.3,362c-7.9-3.9-17.5-0.7-21.4,7.1L153.9,433c-5.3,10.7,2.5,23.1,14.3,23.1c5.9,0,11.5-3.2,14.3-8.8
		l31.9-63.9C218.3,375.5,215.1,365.9,207.3,362L207.3,362z"/>
	<path class="st0" d="M63.5,362c-7.9-3.9-17.5-0.7-21.4,7.1L10.2,433c-5.3,10.7,2.5,23.1,14.3,23.1c5.9,0,11.5-3.2,14.3-8.8
		l31.9-63.9C74.6,375.5,71.4,365.9,63.5,362z"/>
	<path class="st0" d="M255.2,417.9c-7.9-3.9-17.5-0.7-21.4,7.1l-31.9,63.9c-5.3,10.7,2.5,23.1,14.3,23.1c5.9,0,11.5-3.2,14.3-8.8
		l31.9-63.9C266.2,431.4,263,421.8,255.2,417.9L255.2,417.9z"/>
	<path class="st0" d="M398.9,417.9c-7.9-3.9-17.5-0.7-21.4,7.1l-31.9,63.9c-5.3,10.7,2.5,23.1,14.3,23.1c5.9,0,11.5-3.2,14.3-8.8
		l31.9-63.9C410,431.4,406.8,421.8,398.9,417.9L398.9,417.9z"/>
	<path class="st0" d="M111.4,417.9c-7.9-3.9-17.5-0.7-21.4,7.1l-31.9,63.9c-5.3,10.7,2.5,23.1,14.3,23.1c5.9,0,11.5-3.2,14.3-8.8
		l31.9-63.9C122.5,431.4,119.3,421.8,111.4,417.9L111.4,417.9z"/>
</g>
</svg>
