<?xml version="1.0" encoding="utf-8"?>
<!-- Generator: Adobe Illustrator 25.2.2, SVG Export Plug-In . SVG Version: 6.00 Build 0)  -->
<svg version="1.1" id="Layer_1" xmlns="http://www.w3.org/2000/svg" xmlns:xlink="http://www.w3.org/1999/xlink" x="0px" y="0px"
	 viewBox="0 0 512 512" style="enable-background:new 0 0 512 512;" xml:space="preserve">
<style type="text/css">
	.st0{fill:#EF7A13;}
</style>
<g>
	<circle class="st0" cx="256" cy="256" r="144"/>
	<path class="st0" d="M256,80c-8.8,0-16-7.2-16-16V16c0-8.8,7.2-16,16-16s16,7.2,16,16v48C272,72.8,264.8,80,256,80z"/>
	<path class="st0" d="M256,512c-8.8,0-16-7.2-16-16v-48c0-8.8,7.2-16,16-16s16,7.2,16,16v48C272,504.8,264.8,512,256,512z"/>
	<path class="st0" d="M496,272h-48c-8.8,0-16-7.2-16-16s7.2-16,16-16h48c8.8,0,16,7.2,16,16S504.8,272,496,272z"/>
	<path class="st0" d="M64,272H16c-8.8,0-16-7.2-16-16s7.2-16,16-16h48c8.8,0,16,7.2,16,16S72.8,272,64,272z"/>
	<path class="st0" d="M391.8,136.2c-14.1,0-21.4-17.2-11.3-27.3L414.4,75c6.2-6.2,16.4-6.2,22.6,0c6.2,6.2,6.2,16.4,0,22.6
		l-33.9,33.9C400,134.7,395.9,136.2,391.8,136.2L391.8,136.2z"/>
	<path class="st0" d="M86.3,441.7c-14.1,0-21.4-17.2-11.3-27.3l33.9-33.9c6.2-6.2,16.4-6.2,22.6,0c6.2,6.2,6.2,16.4,0,22.6L97.6,437
		C94.5,440.1,90.4,441.7,86.3,441.7L86.3,441.7z"/>
	<path class="st0" d="M425.7,441.7c-4.1,0-8.2-1.6-11.3-4.7l-33.9-33.9c-6.2-6.2-6.2-16.4,0-22.6c6.2-6.2,16.4-6.2,22.6,0l33.9,33.9
		C447.1,424.5,439.8,441.7,425.7,441.7L425.7,441.7z"/>
	<path class="st0" d="M120.2,136.2c-4.1,0-8.2-1.6-11.3-4.7L75,97.6c-6.2-6.2-6.2-16.4,0-22.6c6.2-6.2,16.4-6.2,22.6,0l33.9,33.9
		C141.7,119,134.4,136.2,120.2,136.2z"/>
</g>
</svg>
