<?xml version="1.0" encoding="utf-8"?>
<!-- Generator: Adobe Illustrator 25.2.2, SVG Export Plug-In . SVG Version: 6.00 Build 0)  -->
<svg version="1.1" id="Layer_1" xmlns="http://www.w3.org/2000/svg" xmlns:xlink="http://www.w3.org/1999/xlink" x="0px" y="0px"
	 viewBox="0 0 512 512" style="enable-background:new 0 0 512 512;" xml:space="preserve">
<style type="text/css">
	.st0{fill:#EF7A13;}
</style>
<g>
	<path class="st0" d="M446,197.1c0-59.8-57.1-102.3-113.7-86.2C314.1,73.6,276.2,48,232,48c-59.7,0-108.5,47.2-111.2,106.2
		c-55.3,12.6-90.3,67.5-78.6,122.7c0.8,3.8,5.4,5.3,8.3,2.7c18.3-16.8,42.9-25.5,68.3-23.6c1.7,0.1,3.4-0.7,4.4-2.1
		c6.5-9.2,14.4-17.4,23.4-24.2c63.7-47.9,156-12.6,171.6,65.2c0.3,1.6,1.4,3,3,3.6c25.7,10.5,46.7,31.3,57,57.9
		c0.7,1.9,2.6,3.2,4.6,3.2h46.4c44.9,0,82.2-35.8,82.9-80.7C512.6,238.2,483.7,204.5,446,197.1L446,197.1z"/>
	<path class="st0" d="M288,323.2c4-45-31.4-83.2-76.2-83.2c-34.5,0-63.7,22.8-73.2,54.2c-43.5-22.3-94.3,15.5-84.5,64
		C21.9,358.2,0,383.3,0,411.1C0,440.3,23.7,464,53,464h229.5c39,0,70.6-31.5,70.6-70.5C353,356.4,324.4,326,288,323.2z"/>
</g>
</svg>
