<?xml version="1.0" encoding="utf-8"?>
<!-- Generator: Adobe Illustrator 25.2.2, SVG Export Plug-In . SVG Version: 6.00 Build 0)  -->
<svg version="1.1" id="Layer_1" xmlns="http://www.w3.org/2000/svg" xmlns:xlink="http://www.w3.org/1999/xlink" x="0px" y="0px"
	 viewBox="0 0 512 512" style="enable-background:new 0 0 512 512;" xml:space="preserve">
<style type="text/css">
	.st0{fill:#EF7A13;}
</style>
<g>
	<path class="st0" d="M439.6,162.1c1.3-63.1-60.1-112-123.1-93.3C297.4,28.5,256.5,0,208.1,0C143.5,0,90.7,51.3,88.4,115.3
		C37.5,126.4,0.5,171.7,0.5,224.6c0,61.6,50.1,111.8,111.8,111.8h311.4c48.4,0,87.8-39.4,87.8-87.8
		C511.5,205.5,480.5,169.7,439.6,162.1L439.6,162.1z M104.3,256.5c0-8.8,7.1-16,16-16H280c17.6,0,31.9-14.3,31.9-31.9
		c0-28.4-34.5-42.6-54.5-22.6c-6.2,6.2-16.3,6.2-22.6,0c-6.2-6.2-6.2-16.3,0-22.6c12.1-12.1,28.1-18.7,45.2-18.7
		c35.2,0,63.9,28.7,63.9,63.9c0,35.3-28.5,63.9-63.9,63.9H120.3C111.4,272.5,104.3,265.3,104.3,256.5z"/>
	<path class="st0" d="M375.8,368.3H80.3c-8.8,0-16,7.2-16,16c0,8.8,7.1,16,16,16h295.4c22.2,0,39.9,18,39.9,39.9
		c0,35.7-43.2,53.1-68.2,28.2c-6.2-6.2-16.4-6.2-22.6,0c-6.2,6.2-6.2,16.4,0,22.6c13.6,13.6,31.6,21,50.8,21
		c39.6,0,71.9-32.2,71.9-71.9C447.6,400.4,415.5,368.3,375.8,368.3L375.8,368.3z"/>
	<path class="st0" d="M272,432.2H128.2c-8.8,0-16,7.2-16,16c0,8.8,7.1,16,16,16H272c8.8,0,16-7.2,16-16
		C287.9,439.3,280.8,432.2,272,432.2z"/>
	<path class="st0" d="M32.4,368.3h-16c-8.8,0-16,7.2-16,16c0,8.8,7.1,16,16,16h16c8.8,0,16-7.2,16-16
		C48.4,375.4,41.3,368.3,32.4,368.3z"/>
</g>
</svg>
