<svg id="Layer_1" enable-background="new 0 0 512.008 512.008" height="512" viewBox="0 0 512.008 512.008" width="512" xmlns="http://www.w3.org/2000/svg"><g><path d="m235.992 280.008c-20.139 0-36.469-16.623-35.99-36.868.465-19.653 17.007-35.132 36.665-35.132h76.482c3.178 0 5.578 2.933 4.896 6.036-8.283 37.676-41.929 65.964-82.053 65.964z"/><path d="m478.992 375.008h-88c-4.239 0-8.304 1.684-11.301 4.681l-35.319 35.319h-96.38v-23.72c89.58-8.11 160-83.62 160-175.28v-18.74c20.578-11.924 34.814-32.414 38.81-55.4.532-3.059-1.83-5.861-4.935-5.861h-73.875c-12.42 0-19.96-13.459-13.86-24h.6c.24-.67.49-1.34.76-2 2.94-3.66 7.44-6 12.5-6h114.31c1.86 0 3.565-1.034 4.436-2.677 5.898-11.128 9.243-23.811 9.254-37.255.007-8.836-7.164-16.068-16-16.068h-80c-44.183 0-80 35.817-80 80v43c0 2.761 2.239 5 5 5h11c8.841 0 16 7.172 16 16.014 0 4.762.077 9.285-.62 15.986-5.908 57.261-53.639 102.291-112.036 103.952-38.872 1.106-71.71-29.722-71.341-68.608.219-23.099 12.025-43.476 29.87-55.607 1.354-.921 2.149-2.465 2.148-4.103l-.021-48.304c22.67-3.81 40-23.58 40-47.33 0-17.38-9.54-33.14-24.02-41.56-1.171-36.343-40.855-57.977-71.98-40-31.667-18.29-72 4.45-72 41.56 0 7.46 1.73 14.72 4.97 21.26-12.32 12.4-20.18 29.24-20.91 47.88l-30 12c-13.389 5.351-13.377 24.374 0 29.72l29.94 11.98v45.16c0 91.66 70.42 167.17 160 175.28v23.72h-144.373l12.687-12.687c6.249-6.248 6.249-16.379 0-22.627-6.248-6.249-16.379-6.249-22.627 0-43.469 43.469-40.905 40.599-42.413 43.124-3.137 5.246-3.03 11.916.421 17.073 1.271 1.901-1.314-.876 41.992 42.431 6.248 6.249 16.38 6.248 22.627 0 6.249-6.248 6.249-16.379 0-22.627l-12.687-12.687h144.373v48.548c0 8.616 6.621 16.029 15.227 16.434 9.188.432 16.773-6.889 16.773-15.982v-49h96.38l35.319 35.319c2.997 2.997 7.062 4.681 11.301 4.681h88c14.241 0 21.362-17.28 11.31-27.31l-28.68-28.69 28.68-28.69c10.081-10.058 2.896-27.309-11.31-27.309z"/></g></svg>